<svg width="101" height="36" viewBox="0 0 101 36" fill="none" xmlns="http://www.w3.org/2000/svg">
<g id="Group">
<g id="Group_2">
<path id="Vector" d="M28.3704 22.9626V6.89298C28.3704 6.15853 27.7097 5.56213 26.8961 5.56213H7.80889C6.99524 5.56213 6.33453 6.15853 6.33453 6.89298V24.1223C6.33453 24.8567 6.99524 25.4531 7.80889 25.4531H22.5647C24.5224 25.4531 26.3944 26.1545 27.777 27.4025L33.4053 32.4829L29.5144 35.995L24.0636 31.0748C23.6047 30.6606 22.9746 30.4231 22.32 30.4231H8.1943C4.13216 30.4231 0.828613 27.4522 0.828613 23.7799V7.24088C0.828613 3.57413 4.12604 0.597656 8.1943 0.597656H26.5229C30.5911 0.597656 33.8886 3.57413 33.8886 7.24088V22.9626H28.3704Z" fill="white"/>
<path id="Vector_2" d="M100.829 5.56765H77.5263C76.7126 5.56765 76.0519 6.16405 76.0519 6.8985V24.1223C76.0519 24.8567 76.7126 25.4531 77.5263 25.4531H100.829V30.4231H77.9117C73.8496 30.4231 70.5521 27.4522 70.5521 23.7799V7.24088C70.5521 3.57413 73.8496 0.597656 77.9117 0.597656H100.829V5.56765Z" fill="white"/>
<path id="Vector_3" d="M64.5996 13.0225H45.3227V17.9925H64.5996V13.0225Z" fill="white"/>
<path id="Vector_4" d="M44.436 0.597656H67.3589V5.56765H44.0567C43.2491 5.56765 42.5884 6.16405 42.5884 6.8985V24.1223C42.5884 24.8567 43.2491 25.4531 44.0567 25.4531H67.3589V30.4231H44.436C40.3738 30.4176 37.0764 27.4467 37.0764 23.7744V7.24088C37.0764 3.57413 40.3738 0.597656 44.436 0.597656Z" fill="white"/>
<path id="Vector_5" d="M98.0816 13.0225H78.8047V17.9925H98.0816V13.0225Z" fill="white"/>
<path id="Vector_6" d="M20.1058 13.0225H14.5998V17.9925H20.1058V13.0225Z" fill="white"/>
</g>
</g>
</svg>
