<svg width="122" height="30" viewBox="0 0 122 30" fill="none" xmlns="http://www.w3.org/2000/svg">
<g clip-path="url(#clip0_766_220)">
<path d="M34.3489 25.5149V4.62207H42.6335C44.0457 4.62207 45.2016 4.90741 46.1011 5.4781C47.0103 6.03911 47.6826 6.75972 48.1179 7.63993C48.5628 8.52014 48.7853 9.42936 48.7853 10.3676C48.7853 11.5186 48.5096 12.4955 47.9583 13.2984C47.4166 14.1012 46.6766 14.6429 45.7384 14.9234V14.1979C47.0539 14.4978 48.0501 15.1217 48.7272 16.0696C49.414 17.0175 49.7574 18.096 49.7574 19.3051C49.7574 20.5432 49.5204 21.6265 49.0464 22.5551C48.5725 23.4836 47.8664 24.2091 46.9281 24.7314C45.9995 25.2537 44.8485 25.5149 43.475 25.5149H34.3489ZM37.8891 22.2214H43.0397C43.6491 22.2214 44.1956 22.1005 44.6792 21.8586C45.1629 21.6072 45.5401 21.2589 45.8109 20.814C46.0914 20.3594 46.2317 19.8226 46.2317 19.2035C46.2317 18.6425 46.1108 18.1395 45.869 17.6946C45.6272 17.2496 45.2741 16.8966 44.8098 16.6354C44.3455 16.3646 43.7894 16.2292 43.1413 16.2292H37.8891V22.2214ZM37.8891 12.9647H42.5899C43.0929 12.9647 43.5427 12.8679 43.9393 12.6745C44.3359 12.481 44.6502 12.1957 44.8824 11.8185C45.1145 11.4413 45.2306 10.977 45.2306 10.4256C45.2306 9.70019 44.9984 9.09566 44.5341 8.61203C44.0699 8.12839 43.4218 7.88658 42.5899 7.88658H37.8891V12.9647Z" fill="#04061F"/>
<path d="M52.655 25.5151V9.84545H55.7454V13.6613L55.3682 13.168C55.5616 12.6456 55.818 12.1717 56.1372 11.7461C56.466 11.3108 56.8578 10.953 57.3124 10.6725C57.6993 10.4113 58.1249 10.2082 58.5892 10.0631C59.0631 9.90832 59.5468 9.81643 60.0401 9.78741C60.5334 9.74872 61.0122 9.76807 61.4765 9.84545V13.1099C61.0122 12.9745 60.4753 12.931 59.866 12.9793C59.2663 13.0277 58.7246 13.197 58.241 13.4872C57.7573 13.7483 57.3608 14.082 57.0512 14.4883C56.7514 14.8945 56.5289 15.3588 56.3838 15.8811C56.2387 16.3938 56.1662 16.95 56.1662 17.5497V25.5151H52.655Z" fill="#04061F"/>
<path d="M64.5356 7.46575V4.25928H68.0323V7.46575H64.5356ZM64.5356 25.5148V9.84521H68.0323V25.5148H64.5356Z" fill="#04061F"/>
<path d="M78.4283 25.9498C76.4938 25.9498 74.922 25.5145 73.7129 24.644C72.5038 23.7735 71.7687 22.5499 71.5076 20.9733L75.0768 20.4219C75.2605 21.1957 75.6668 21.8051 76.2955 22.25C76.9242 22.695 77.7174 22.9174 78.675 22.9174C79.5165 22.9174 80.1646 22.753 80.6192 22.4241C81.0835 22.0856 81.3156 21.6262 81.3156 21.0458C81.3156 20.6879 81.2286 20.4026 81.0544 20.1898C80.89 19.9673 80.5224 19.7545 79.9518 19.5514C79.3811 19.3483 78.5057 19.0919 77.3256 18.7824C76.0102 18.4342 74.9655 18.0618 74.1917 17.6652C73.4179 17.259 72.8617 16.7802 72.5232 16.2288C72.1846 15.6775 72.0154 15.0101 72.0154 14.2266C72.0154 13.2497 72.2717 12.3985 72.7844 11.6731C73.297 10.9476 74.0128 10.3914 74.9317 10.0045C75.8506 9.60796 76.9339 9.40967 78.1817 9.40967C79.4004 9.40967 80.4789 9.59828 81.4172 9.97552C82.3651 10.3527 83.1292 10.8896 83.7096 11.586C84.2899 12.2824 84.6478 13.0997 84.7832 14.038L81.214 14.6764C81.127 14.009 80.8223 13.4818 80.3 13.0949C79.7873 12.708 79.1006 12.4904 78.2397 12.442C77.4175 12.3936 76.755 12.5194 76.252 12.8192C75.749 13.1094 75.4975 13.5205 75.4975 14.0525C75.4975 14.3523 75.5991 14.6087 75.8022 14.8215C76.0053 15.0343 76.4116 15.2471 77.021 15.4599C77.64 15.6727 78.5589 15.9338 79.7777 16.2433C81.0254 16.5625 82.0217 16.9301 82.7665 17.346C83.521 17.7523 84.0626 18.2407 84.3915 18.8114C84.73 19.3821 84.8993 20.0737 84.8993 20.8862C84.8993 22.4628 84.3238 23.7009 83.1727 24.6005C82.0314 25.5 80.4499 25.9498 78.4283 25.9498Z" fill="#04061F"/>
<path d="M97.2616 25.515C96.2267 25.7084 95.2111 25.7906 94.2148 25.7616C93.2282 25.7423 92.3431 25.5633 91.5596 25.2248C90.7762 24.8766 90.1813 24.3301 89.775 23.5853C89.4171 22.9082 89.2285 22.2166 89.2092 21.5105C89.1898 20.8044 89.1802 20.0064 89.1802 19.1165V5.49268H92.6623V18.9134C92.6623 19.5421 92.6671 20.0935 92.6768 20.5674C92.6962 21.0414 92.7977 21.4283 92.9815 21.7281C93.3297 22.3085 93.8859 22.6325 94.65 22.7002C95.4142 22.7679 96.2847 22.7292 97.2616 22.5842V25.515ZM86.3364 12.5875V9.84535H97.2616V12.5875H86.3364Z" fill="#04061F"/>
<path d="M106.758 25.9498C105.191 25.9498 103.823 25.5968 102.652 24.8907C101.482 24.1846 100.573 23.2125 99.9246 21.9744C99.2862 20.7266 98.967 19.2951 98.967 17.6797C98.967 16.0354 99.2959 14.5942 99.9536 13.3561C100.611 12.118 101.525 11.1507 102.696 10.4543C103.866 9.75788 105.22 9.40967 106.758 9.40967C108.335 9.40967 109.708 9.76272 110.879 10.4688C112.049 11.1749 112.958 12.1518 113.607 13.3996C114.255 14.6377 114.579 16.0644 114.579 17.6797C114.579 19.3047 114.25 20.7411 113.592 21.9889C112.944 23.227 112.035 24.1991 110.864 24.9052C109.694 25.6016 108.325 25.9498 106.758 25.9498ZM106.758 22.6708C108.151 22.6708 109.186 22.2065 109.863 21.2779C110.54 20.3494 110.879 19.15 110.879 17.6797C110.879 16.1611 110.535 14.952 109.849 14.0525C109.162 13.1433 108.132 12.6887 106.758 12.6887C105.82 12.6887 105.046 12.9015 104.437 13.327C103.837 13.743 103.392 14.3282 103.102 15.0826C102.812 15.8274 102.667 16.6931 102.667 17.6797C102.667 19.1983 103.01 20.4122 103.697 21.3215C104.393 22.221 105.414 22.6708 106.758 22.6708Z" fill="#04061F"/>
<path d="M118.065 25.5146V4.18652H121.562V25.5146H118.065Z" fill="#04061F"/>
<path fill-rule="evenodd" clip-rule="evenodd" d="M21.7675 0.124023H0.349609V13.942H21.7675C25.5832 13.942 28.6765 10.8487 28.6765 7.03301C28.6765 3.21731 25.5832 0.124061 21.7675 0.124023Z" fill="#04061F"/>
<path fill-rule="evenodd" clip-rule="evenodd" d="M21.7675 15.3237H0.349609V29.1417H21.747C21.7538 29.1417 21.7606 29.1417 21.7674 29.1417C25.5832 29.1417 28.6764 26.0485 28.6764 22.2328C28.6764 18.417 25.5832 15.3238 21.7675 15.3237Z" fill="#04061F"/>
</g>
<defs>
<clipPath id="clip0_766_220">
<rect width="121.23" height="29.0179" fill="white" transform="translate(0.349609 0.124023)"/>
</clipPath>
</defs>
</svg>
