<?xml version="1.0" encoding="utf-8"?>
<!-- Generator: Adobe Illustrator 28.1.0, SVG Export Plug-In . SVG Version: 6.00 Build 0)  -->
<svg version="1.1" id="Layer_1" xmlns="http://www.w3.org/2000/svg" xmlns:xlink="http://www.w3.org/1999/xlink" x="0px" y="0px"
	 viewBox="0 0 440.4 524.5" style="enable-background:new 0 0 440.4 524.5;" xml:space="preserve">
<style type="text/css">
	.st0{fill:#1D2D5C;}
	.st1{fill:#E31837;}
</style>
<path class="st0" d="M43.8,361.6c-0.2,4-1.3,7-3.4,9.1c-2.1,2.1-5,3.1-8.8,3.1c-4,0-7-1.3-9.1-3.9s-3.2-6.3-3.2-11.2v-5.9
	c0-4.8,1.1-8.5,3.3-11.1s5.2-3.9,9.1-3.9c3.8,0,6.7,1.1,8.7,3.2s3.1,5.2,3.4,9.2h-7.1c-0.1-2.5-0.4-4.2-1.1-5.1
	c-0.7-0.9-2-1.4-3.8-1.4c-1.9,0-3.2,0.7-4,2s-1.2,3.5-1.3,6.5v6.6c0,3.5,0.4,5.9,1.2,7.2c0.8,1.3,2.1,2,4,2c1.9,0,3.2-0.5,3.9-1.4
	s1.1-2.6,1.2-4.9h7V361.6z"/>
<path class="st0" d="M57.9,373.7c-3.5,0-6.2-1-8.2-3.1s-2.9-5.1-2.9-9v-2.1c0-4.1,0.9-7.3,2.7-9.5s4.4-3.3,7.7-3.3s5.7,1,7.4,3.1
	s2.5,5.2,2.5,9.3v3.3H53.6c0.1,1.9,0.5,3.4,1.3,4.3s1.9,1.3,3.5,1.3c2.3,0,4.2-0.8,5.7-2.3l2.7,4.1c-0.8,1.2-2.1,2.1-3.6,2.8
	C61.5,373.4,59.8,373.7,57.9,373.7 M53.6,357.7h6.8v-0.6c0-1.6-0.3-2.7-0.8-3.5s-1.3-1.2-2.5-1.2s-2.1,0.4-2.6,1.3
	C54,354.5,53.7,355.8,53.6,357.7"/>
<path class="st0" d="M83.4,353.7l-2.3-0.2c-1.9,0-3.1,0.8-3.8,2.5v17.2h-6.8v-26.1h6.4l0.2,2.8c1.1-2.2,2.6-3.3,4.5-3.3
	c0.8,0,1.4,0.1,1.9,0.3L83.4,353.7z"/>
<path class="st0" d="M95.5,340.8v6.4H99v5.1h-3.5v13c0,1,0.1,1.7,0.4,2.1s0.8,0.6,1.6,0.6c0.7,0,1.2-0.1,1.6-0.2v5.3
	c-1.2,0.4-2.4,0.7-3.8,0.7c-4.4,0-6.6-2.5-6.7-7.6v-13.9h-3v-5.1h3v-6.4H95.5z"/>
<path class="st0" d="M102.2,340.4c0-1.1,0.3-1.9,1-2.6s1.6-1,2.7-1s2,0.3,2.7,1s1,1.5,1,2.6c0,1-0.3,1.9-1,2.6s-1.6,1-2.7,1
	s-2-0.3-2.7-1S102.2,341.5,102.2,340.4 M109.4,373.2h-6.8v-26.1h6.8V373.2z"/>
<path class="st0" d="M115.7,373.2v-21h-3.2v-5.1h3.2v-2.3c0-2.9,0.8-5.1,2.3-6.7s3.6-2.4,6.2-2.4c0.8,0,1.8,0.2,3.1,0.5v5.4
	c-0.5-0.1-1-0.2-1.7-0.2c-2,0-3,1.2-3,3.6v2.1h4.1v5.1h-4.1v21H115.7z"/>
<path class="st0" d="M129.9,340.4c0-1.1,0.3-1.9,1-2.6s1.6-1,2.7-1c1.1,0,2,0.3,2.7,1s1,1.5,1,2.6c0,1-0.3,1.9-1,2.6s-1.6,1-2.7,1
	c-1.1,0-2-0.3-2.7-1S129.9,341.5,129.9,340.4 M137,373.2h-6.8v-26.1h6.8V373.2z"/>
<path class="st0" d="M152.3,373.7c-3.5,0-6.2-1-8.2-3.1s-2.9-5.1-2.9-9v-2.1c0-4.1,0.9-7.3,2.7-9.5s4.4-3.3,7.7-3.3s5.7,1,7.4,3.1
	s2.5,5.2,2.5,9.3v3.3H148c0.1,1.9,0.5,3.4,1.3,4.3s1.9,1.3,3.5,1.3c2.3,0,4.2-0.8,5.7-2.3l2.7,4.1c-0.8,1.2-2.1,2.1-3.6,2.8
	C155.9,373.4,154.2,373.7,152.3,373.7 M148,357.7h6.8v-0.6c0-1.6-0.3-2.7-0.8-3.5s-1.3-1.2-2.5-1.2s-2.1,0.4-2.6,1.3
	C148.5,354.5,148.1,355.8,148,357.7"/>
<path class="st0" d="M164,359.4c0-4.3,0.7-7.5,2.2-9.6c1.4-2.1,3.6-3.2,6.3-3.2c2,0,3.7,0.9,5,2.6v-13.1h6.9v37h-6.2l-0.3-2.6
	c-1.4,2.1-3.2,3.1-5.4,3.1c-2.7,0-4.8-1-6.3-3.1c-1.4-2.1-2.2-5.2-2.2-9.2V359.4z M170.9,361.1c0,2.6,0.3,4.4,0.8,5.4
	s1.5,1.5,2.8,1.5c1.4,0,2.4-0.6,3.1-1.8v-11.9c-0.7-1.3-1.7-1.9-3-1.9s-2.2,0.5-2.7,1.5c-0.6,1-0.9,2.8-0.9,5.4v1.8H170.9z"/>
<rect x="200.4" y="338.1" class="st0" width="7.1" height="35.1"/>
<path class="st0" d="M218.9,347.2l0.2,2.6c1.5-2,3.6-3.1,6.1-3.1c4.5,0,6.8,3.1,6.9,9.4v17.1h-6.8v-16.6c0-1.5-0.2-2.6-0.7-3.2
	c-0.4-0.7-1.2-1-2.3-1c-1.2,0-2.2,0.6-2.9,1.9v18.9h-6.8v-26.1h6.3V347.2z"/>
<path class="st0" d="M238,373.2v-21h-3.2v-5.1h3.2v-2.3c0-2.9,0.8-5.1,2.3-6.7s3.6-2.4,6.2-2.4c0.8,0,1.8,0.2,3.1,0.5v5.4
	c-0.5-0.1-1-0.2-1.7-0.2c-2,0-3,1.2-3,3.6v2.1h4.1v5.1h-4.1v21H238z"/>
<path class="st0" d="M251.3,359.4c0-3.9,0.9-7.1,2.8-9.3c1.9-2.2,4.4-3.4,7.7-3.4c3.3,0,5.9,1.1,7.8,3.4c1.9,2.2,2.8,5.4,2.8,9.4
	v1.7c0,4-0.9,7.1-2.8,9.3c-1.8,2.2-4.4,3.4-7.8,3.4c-3.3,0-5.9-1.1-7.8-3.4c-1.9-2.2-2.8-5.4-2.8-9.3L251.3,359.4L251.3,359.4z
	 M258.2,361.1c0,4.7,1.2,7,3.7,7c2.3,0,3.5-1.9,3.7-5.8v-2.9c0-2.4-0.3-4.1-1-5.3c-0.7-1.1-1.6-1.7-2.8-1.7c-1.2,0-2.1,0.6-2.7,1.7
	s-1,2.9-1,5.3L258.2,361.1L258.2,361.1z"/>
<path class="st0" d="M289.1,353.7l-2.3-0.2c-1.9,0-3.1,0.8-3.8,2.5v17.2h-6.8v-26.1h6.4l0.2,2.8c1.1-2.2,2.6-3.3,4.5-3.3
	c0.8,0,1.4,0.1,1.9,0.3L289.1,353.7z"/>
<path class="st0" d="M298.5,347.2l0.2,2.4c1.5-1.9,3.5-2.9,6.1-2.9s4.4,1.2,5.5,3.5c1.5-2.3,3.6-3.5,6.4-3.5c4.6,0,6.9,3.2,7,9.5
	v17.1h-6.8v-16.7c0-1.5-0.2-2.6-0.6-3.2s-1.1-1-2.1-1c-1.3,0-2.2,0.8-2.8,2.3v0.8v17.7h-6.8v-16.6c0-1.5-0.2-2.6-0.6-3.2
	c-0.4-0.7-1.1-1-2.1-1c-1.2,0-2.1,0.6-2.8,1.9v18.9h-6.8v-26.1h6.2V347.2z"/>
<path class="st0" d="M340.6,373.2c-0.2-0.4-0.4-1.1-0.6-2c-1.2,1.7-2.9,2.5-5,2.5c-2.2,0-4-0.7-5.4-2.2c-1.4-1.4-2.2-3.3-2.2-5.6
	c0-2.7,0.9-4.8,2.6-6.3s4.3-2.3,7.5-2.3h2.1v-2.1c0-1.2-0.2-2-0.6-2.5s-1-0.7-1.8-0.7c-1.7,0-2.6,1-2.6,3h-6.8c0-2.4,0.9-4.4,2.7-6
	c1.8-1.6,4.1-2.3,6.9-2.3c2.9,0,5.1,0.7,6.6,2.2c1.6,1.5,2.3,3.6,2.3,6.4v12.3c0,2.2,0.4,4,1,5.3v0.4L340.6,373.2L340.6,373.2z
	 M336.6,368.4c0.8,0,1.4-0.2,1.9-0.5s0.9-0.7,1.2-1.1v-5.4H338c-1.2,0-2.1,0.4-2.7,1.1c-0.7,0.7-1,1.7-1,3
	C334.3,367.4,335,368.4,336.6,368.4"/>
<path class="st0" d="M358.9,340.8v6.4h3.5v5.1h-3.5v13c0,1,0.1,1.7,0.4,2.1s0.8,0.6,1.6,0.6c0.7,0,1.2-0.1,1.6-0.2v5.3
	c-1.2,0.4-2.4,0.7-3.8,0.7c-4.4,0-6.6-2.5-6.7-7.6v-13.9h-3v-5.1h3v-6.4H358.9z"/>
<path class="st0" d="M365.6,340.4c0-1.1,0.3-1.9,1-2.6s1.6-1,2.7-1s2,0.3,2.7,1s1,1.5,1,2.6c0,1-0.3,1.9-1,2.6s-1.6,1-2.7,1
	s-2-0.3-2.7-1S365.6,341.5,365.6,340.4 M372.8,373.2H366v-26.1h6.8V373.2z"/>
<path class="st0" d="M376.7,359.4c0-3.9,0.9-7.1,2.8-9.3c1.9-2.2,4.4-3.4,7.7-3.4c3.3,0,5.9,1.1,7.8,3.4c1.9,2.2,2.8,5.4,2.8,9.4
	v1.7c0,4-0.9,7.1-2.8,9.3c-1.8,2.2-4.4,3.4-7.8,3.4c-3.3,0-5.9-1.1-7.8-3.4c-1.9-2.2-2.8-5.4-2.8-9.3L376.7,359.4L376.7,359.4z
	 M383.6,361.1c0,4.7,1.2,7,3.7,7c2.3,0,3.5-1.9,3.7-5.8v-2.9c0-2.4-0.3-4.1-1-5.3c-0.7-1.1-1.6-1.7-2.8-1.7c-1.2,0-2.1,0.6-2.7,1.7
	s-1,2.9-1,5.3L383.6,361.1L383.6,361.1z"/>
<path class="st0" d="M407.9,347.2l0.2,2.6c1.5-2,3.6-3.1,6.1-3.1c4.5,0,6.8,3.1,6.9,9.4v17.1h-6.8v-16.6c0-1.5-0.2-2.6-0.7-3.2
	c-0.4-0.7-1.2-1-2.3-1c-1.2,0-2.2,0.6-2.9,1.9v18.9h-6.8v-26.1h6.3V347.2z"/>
<path class="st0" d="M378.3,409.1c2.8,0,5.1,2.3,5.1,5.1c0,2.8-2.3,5.1-5.1,5.1c-2.8,0-5.1-2.3-5.1-5.1
	C373.2,411.4,375.5,409.1,378.3,409.1 M378.3,418.5c2.4,0,4.3-1.9,4.3-4.3s-1.9-4.3-4.3-4.3s-4.3,1.9-4.3,4.3
	S375.9,418.5,378.3,418.5 M376.5,411.9c0-0.1,0.1-0.3,0.3-0.3h2c0.9,0,1.8,0.5,1.8,1.6s-0.8,1.5-1.2,1.6c0.3,0.6,0.6,1.1,0.9,1.7
	c0.1,0.2,0,0.4-0.2,0.4h-0.5c-0.1,0-0.2-0.1-0.3-0.2l-0.8-1.8h-1.1v1.7c0,0.1-0.1,0.3-0.3,0.3h-0.4c-0.2,0-0.3-0.1-0.3-0.3v-4.7
	H376.5z M378.8,414.1c0.5,0,0.9-0.4,0.9-0.8c0-0.5-0.3-0.8-0.9-0.8h-1.4v1.6L378.8,414.1L378.8,414.1z"/>
<path class="st0" d="M72.8,409.2c0-1.4-0.4-2.5-1.1-3.2s-2.1-1.5-4-2.3c-3.5-1.3-6-2.9-7.6-4.7c-1.5-1.8-2.3-3.9-2.3-6.4
	c0-3,1.1-5.3,3.1-7.1c2.1-1.8,4.8-2.7,8-2.7c2.2,0,4.1,0.5,5.8,1.4c1.7,0.9,3,2.2,3.9,3.8c0.9,1.7,1.4,3.5,1.4,5.6h-7.1
	c0-1.6-0.4-2.9-1-3.7c-0.7-0.9-1.7-1.3-3-1.3c-1.2,0-2.2,0.4-2.9,1.1c-0.7,0.7-1,1.7-1,3c0,1,0.4,1.8,1.2,2.6
	c0.8,0.8,2.1,1.6,4.1,2.4c3.4,1.2,5.9,2.8,7.5,4.6c1.6,1.8,2.3,4.1,2.3,6.9c0,3.1-1,5.4-2.9,7.2c-1.9,1.7-4.6,2.6-7.9,2.6
	c-2.3,0-4.3-0.5-6.2-1.4c-1.9-0.9-3.3-2.3-4.4-4c-1.1-1.7-1.6-3.8-1.6-6.1h7.1c0,2,0.4,3.5,1.2,4.4c0.8,0.9,2.1,1.4,3.9,1.4
	C71.6,413.1,72.8,411.8,72.8,409.2"/>
<path class="st0" d="M92.2,407.1l3.5-14.7h7.3l-8.6,30c-1.3,4.4-3.7,6.6-7.3,6.6c-0.8,0-1.8-0.2-2.8-0.5v-5.3h0.8
	c1.1,0,1.9-0.2,2.4-0.6s0.9-1.1,1.2-2.1l0.5-1.8l-7.5-26.3H89L92.2,407.1z"/>
<path class="st0" d="M116.9,411.4c0-0.6-0.3-1.1-0.8-1.6c-0.6-0.5-1.8-1.2-3.7-2c-2.8-1.1-4.7-2.3-5.8-3.5c-1.1-1.2-1.6-2.7-1.6-4.6
	c0-2.3,0.8-4.2,2.5-5.7c1.6-1.5,3.8-2.2,6.5-2.2c2.9,0,5.2,0.7,6.9,2.2c1.7,1.5,2.6,3.5,2.6,6h-6.8c0-2.1-0.9-3.2-2.6-3.2
	c-0.7,0-1.3,0.2-1.8,0.7c-0.5,0.4-0.7,1.1-0.7,1.9c0,0.6,0.3,1.1,0.8,1.5s1.7,1.1,3.6,1.9c2.8,1,4.7,2.2,5.9,3.4
	c1.1,1.3,1.7,2.9,1.7,4.9c0,2.3-0.9,4.2-2.6,5.6c-1.8,1.4-4.1,2.1-6.9,2.1c-1.9,0-3.6-0.4-5.1-1.1s-2.6-1.8-3.4-3.1
	c-0.8-1.3-1.2-2.8-1.2-4.3h6.5c0,1.2,0.3,2.1,0.8,2.7s1.4,0.9,2.6,0.9C116,413.9,116.9,413.1,116.9,411.4"/>
<path class="st0" d="M135.2,385.9v6.4h3.5v5.1h-3.5v13c0,1,0.1,1.7,0.4,2.1c0.3,0.4,0.8,0.6,1.6,0.6c0.7,0,1.2-0.1,1.6-0.2v5.3
	c-1.2,0.4-2.4,0.7-3.8,0.7c-4.4,0-6.6-2.5-6.7-7.6v-13.9h-3v-5.1h3v-6.4H135.2z"/>
<path class="st0" d="M152.5,418.9c-3.5,0-6.2-1-8.2-3.1s-2.9-5.1-2.9-9v-2.1c0-4.1,0.9-7.3,2.7-9.5s4.4-3.3,7.7-3.3s5.7,1,7.4,3.1
	s2.5,5.2,2.5,9.3v3.3h-13.6c0.1,1.9,0.5,3.4,1.3,4.3s1.9,1.3,3.5,1.3c2.3,0,4.2-0.8,5.7-2.3l2.7,4.1c-0.8,1.2-2.1,2.1-3.6,2.8
	C156.1,418.5,154.4,418.9,152.5,418.9 M148.2,402.9h6.8v-0.6c0-1.6-0.3-2.7-0.8-3.5s-1.3-1.2-2.5-1.2s-2.1,0.4-2.6,1.3
	C148.6,399.6,148.3,401,148.2,402.9"/>
<path class="st0" d="M171.5,392.3l0.2,2.4c1.5-1.9,3.5-2.9,6.1-2.9s4.4,1.2,5.5,3.5c1.5-2.3,3.6-3.5,6.4-3.5c4.6,0,6.9,3.2,7,9.5
	v17.1h-6.8v-16.7c0-1.5-0.2-2.6-0.6-3.2c-0.4-0.6-1.1-1-2.1-1c-1.3,0-2.2,0.8-2.8,2.3v0.8v17.7h-6.8v-16.6c0-1.5-0.2-2.6-0.6-3.2
	c-0.4-0.7-1.1-1-2.1-1c-1.2,0-2.1,0.6-2.8,1.9v18.9h-6.8v-26.1h6.2V392.3z"/>
<path class="st0" d="M212.8,411.4c0-0.6-0.3-1.1-0.8-1.6c-0.6-0.5-1.8-1.2-3.7-2c-2.8-1.1-4.7-2.3-5.8-3.5s-1.6-2.7-1.6-4.6
	c0-2.3,0.8-4.2,2.5-5.7c1.6-1.5,3.8-2.2,6.5-2.2c2.9,0,5.2,0.7,6.9,2.2s2.6,3.5,2.6,6h-6.8c0-2.1-0.9-3.2-2.7-3.2
	c-0.7,0-1.3,0.2-1.8,0.7c-0.5,0.4-0.7,1.1-0.7,1.9c0,0.6,0.3,1.1,0.8,1.5s1.7,1.1,3.6,1.9c2.8,1,4.7,2.2,5.9,3.4s1.7,2.9,1.7,4.9
	c0,2.3-0.9,4.2-2.6,5.6c-1.8,1.4-4.1,2.1-6.9,2.1c-1.9,0-3.6-0.4-5.1-1.1s-2.6-1.8-3.4-3.1c-0.8-1.3-1.2-2.8-1.2-4.3h6.5
	c0,1.2,0.3,2.1,0.8,2.7s1.4,0.9,2.6,0.9C211.8,413.9,212.8,413.1,212.8,411.4"/>
<path class="st0" d="M251.1,411.2h-9.7l-1.9,7.2H232l11-35.1h6.5l11,35.1H253L251.1,411.2z M243,405.3h6.6l-3.3-12.5L243,405.3z"/>
<path class="st0" d="M275.6,416c-1.4,1.9-3.3,2.9-5.7,2.9c-2.4,0-4.2-0.8-5.4-2.5s-1.9-4-1.9-7.2v-16.9h6.8v17.1
	c0,2.5,0.9,3.8,2.5,3.8s2.7-0.7,3.4-2v-18.8h6.9v26.1h-6.4L275.6,416z"/>
<path class="st0" d="M285.6,404.6c0-4.3,0.7-7.5,2.2-9.6c1.4-2.1,3.6-3.2,6.3-3.2c2,0,3.7,0.9,5,2.6v-13.1h6.9v37h-6.2l-0.3-2.6
	c-1.4,2.1-3.2,3.1-5.4,3.1c-2.7,0-4.8-1-6.3-3.1c-1.4-2.1-2.2-5.2-2.2-9.2V404.6z M292.5,406.3c0,2.6,0.3,4.4,0.8,5.4
	s1.5,1.5,2.8,1.5c1.4,0,2.4-0.6,3.1-1.8v-11.9c-0.7-1.3-1.7-1.9-3-1.9s-2.2,0.5-2.7,1.5c-0.6,1-0.9,2.8-0.9,5.4L292.5,406.3
	L292.5,406.3z"/>
<path class="st0" d="M310.5,385.6c0-1.1,0.3-1.9,1-2.6s1.6-1,2.7-1s2,0.3,2.7,1s1,1.5,1,2.6c0,1-0.3,1.9-1,2.6s-1.6,1-2.7,1
	s-2-0.3-2.7-1S310.5,386.6,310.5,385.6 M317.7,418.4h-6.8v-26.1h6.8V418.4z"/>
<path class="st0" d="M330.4,385.9v6.4h3.5v5.1h-3.5v13c0,1,0.1,1.7,0.4,2.1s0.8,0.6,1.6,0.6c0.7,0,1.2-0.1,1.6-0.2v5.3
	c-1.2,0.4-2.4,0.7-3.8,0.7c-4.4,0-6.6-2.5-6.7-7.6v-13.9h-3v-5.1h3v-6.4H330.4z"/>
<path class="st0" d="M335.6,404.5c0-3.9,0.9-7.1,2.8-9.3c1.9-2.2,4.4-3.4,7.7-3.4c3.3,0,5.9,1.1,7.8,3.4c1.9,2.2,2.8,5.4,2.8,9.4
	v1.7c0,4-0.9,7.1-2.8,9.3c-1.8,2.2-4.4,3.4-7.8,3.4c-3.3,0-5.9-1.1-7.8-3.4c-1.9-2.2-2.8-5.4-2.8-9.3L335.6,404.5L335.6,404.5z
	 M342.5,406.2c0,4.7,1.2,7,3.7,7c2.3,0,3.5-1.9,3.7-5.8v-2.9c0-2.4-0.3-4.1-1-5.3c-0.7-1.1-1.6-1.7-2.8-1.7c-1.2,0-2.1,0.6-2.7,1.7
	s-1,2.9-1,5.3L342.5,406.2L342.5,406.2z"/>
<path class="st0" d="M373.3,398.9l-2.3-0.2c-1.9,0-3.1,0.8-3.8,2.5v17.2h-6.8v-26.1h6.4l0.2,2.8c1.1-2.2,2.6-3.3,4.5-3.3
	c0.8,0,1.4,0.1,1.9,0.3L373.3,398.9z"/>
<path class="st0" d="M362.6,181.6c2.8,0,5.1,2.3,5.1,5.1s-2.3,5.1-5.1,5.1c-2.8,0-5.1-2.3-5.1-5.1
	C357.5,183.9,359.8,181.6,362.6,181.6 M362.6,191c2.4,0,4.3-1.9,4.3-4.3c0-2.4-1.9-4.3-4.3-4.3s-4.3,1.9-4.3,4.3
	C358.3,189.1,360.2,191,362.6,191 M360.8,184.4c0-0.1,0.1-0.3,0.3-0.3h2c0.9,0,1.8,0.5,1.8,1.6s-0.8,1.5-1.2,1.6
	c0.3,0.6,0.6,1.1,0.9,1.7c0.1,0.2,0,0.4-0.2,0.4h-0.5c-0.1,0-0.2-0.1-0.3-0.2l-0.8-1.8h-1.1v1.7c0,0.1-0.1,0.3-0.3,0.3H361
	c-0.2,0-0.3-0.1-0.3-0.3v-4.7H360.8z M363.1,186.5c0.5,0,0.9-0.4,0.9-0.8c0-0.5-0.3-0.8-0.9-0.8h-1.4v1.6H363.1z"/>
<path class="st1" d="M217.4,270c-66.3,0-119.7-56.3-115-123.6c4-57.2,50.7-103.3,107.9-106.7c49.2-2.9,92.4,25.3,111.6,66.7
	c0.5,1,1.5,1.6,2.6,1.6h25.8c2,0,3.4-2,2.7-3.8C332.3,48.5,278.2,9,215,10C138.7,11.3,75.7,72.9,72.8,149.1
	c-3.1,82.5,62.8,150.4,144.7,150.4c62.1,0,115.1-39.2,135.6-94.1c0.7-1.8-0.7-3.8-2.7-3.8h-25.8c-1.1,0-2.1,0.6-2.6,1.6
	C303.6,242.6,263.7,270,217.4,270"/>
<path class="st0" d="M167.2,117.2c10.2,0,17.8,3.2,24.8,9.5c0.9,0.8,0.9,2,0.1,2.9l-8,8.3c-0.7,0.7-1.8,0.7-2.6,0
	c-3.8-3.4-8.8-5.2-13.8-5.2c-11.6,0-20.1,9.6-20.1,21.1c0,11.4,8.6,20.8,20.2,20.8c4.8,0,10-1.7,13.7-4.9c0.7-0.6,2.1-0.6,2.7,0.1
	l8,8.5c0.7,0.7,0.6,2.1-0.1,2.8c-7,6.8-15.8,9.9-24.9,9.9c-20.5,0-37-16.3-37-36.8S146.7,117.2,167.2,117.2"/>
<path class="st0" d="M204.4,120.2c0-1,0.9-1.9,1.9-1.9h12.3c1,0,2,0.9,2,1.9V188c0,1-0.9,1.9-2,1.9h-12.3c-1,0-1.9-0.9-1.9-1.9
	V120.2z"/>
<path class="st0" d="M234.1,180.2l4.8-8.5c0.8-1.3,2.8-1.1,3.5-0.6c0.4,0.2,7.8,5.6,14.5,5.6c4.1,0,7.1-2.6,7.1-6.1
	c0-4.3-3.6-7.6-10.6-10.3c-8.8-3.5-19.9-10.3-19.9-22.6c0-10.1,7.9-20.4,23.7-20.4c10.7,0,18.8,5.4,21.9,7.7c1.2,0.7,1,2.6,0.6,3.3
	l-5.2,7.9c-0.7,1.1-2.6,2.1-3.5,1.3c-0.9-0.5-8.4-6.2-14.6-6.2c-3.7,0-6.5,2.5-6.5,5.2c0,3.8,3.1,6.7,11.2,9.9
	c8,3.2,20.7,9.4,20.7,23.4c0,10.6-9.1,21.2-24.2,21.2c-13.3,0-20.7-5.5-23.1-7.9C233.6,182,233.3,181.6,234.1,180.2"/>
<path class="st0" d="M285.1,187.3l32.1-68.9c0.3-0.6,1-1.1,1.7-1.1h1c0.7,0,1.4,0.5,1.7,1.1l32.1,68.9c0.6,1.3-0.2,2.7-1.7,2.7
	h-11.4c-1.8,0-2.7-0.6-3.6-2.6l-3.7-8.1h-27.9l-3.7,8.2c-0.5,1.2-1.6,2.5-3.7,2.5h-11.3C285.4,189.9,284.5,188.6,285.1,187.3
	 M327.3,165.3l-7.8-16.9h-0.1l-7.7,16.9H327.3z"/>
</svg>
