<svg width="110" height="35" viewBox="0 0 110 35" fill="none" xmlns="http://www.w3.org/2000/svg">
<g clip-path="url(#clip0_766_415)">
<path d="M8.41427 7.67609C7.32203 7.67609 6.41699 7.35237 5.69921 6.70489C5.01265 6.02656 4.66933 5.19409 4.66933 4.20743C4.66933 3.22079 5.01265 2.40373 5.69921 1.75625C6.41699 1.07793 7.32203 0.73877 8.41427 0.73877C9.50656 0.73877 10.396 1.07793 11.0825 1.75625C11.8003 2.40373 12.1592 3.22079 12.1592 4.20743C12.1592 5.19409 11.8003 6.02656 11.0825 6.70489C10.396 7.35237 9.50656 7.67609 8.41427 7.67609ZM0.0817871 34.0379L4.15441 11.0985H10.1463L6.07371 34.0379H0.0817871Z" fill="#04061F"/>
<path d="M25.4474 34.0378C23.0132 34.0378 21.0627 33.452 19.5959 32.2804C18.1292 31.1087 17.3958 29.0275 17.3958 26.0368V16.047H13.4167V11.0984H17.3958L18.098 4.94727H23.3877V11.0984H29.6605V16.047H23.3877V26.083C23.3877 27.193 23.6217 27.9638 24.0898 28.3954C24.5892 28.7963 25.4318 28.9967 26.6177 28.9967H29.52V34.0378H25.4474Z" fill="#04061F"/>
<path d="M42.8098 34.5929C40.8124 34.5929 39.1742 34.2845 37.8946 33.6679C36.615 33.0204 35.6632 32.1725 35.039 31.1242C34.4149 30.0759 34.1028 28.9197 34.1028 27.6555C34.1028 25.5281 34.9454 23.8015 36.6306 22.4757C38.3159 21.1499 40.8436 20.487 44.214 20.487H50.1125V19.932C50.1125 18.3595 49.66 17.2033 48.755 16.4633C47.8499 15.7233 46.7264 15.3533 45.3846 15.3533C44.1674 15.3533 43.1062 15.6462 42.2012 16.232C41.2962 16.787 40.7345 17.6195 40.516 18.7295H34.6645C34.8206 17.0645 35.3823 15.6154 36.3498 14.3821C37.3484 13.1488 38.6281 12.2084 40.1884 11.5609C41.7487 10.8826 43.4963 10.5435 45.4312 10.5435C48.7392 10.5435 51.3452 11.3605 53.2489 12.9946C55.1527 14.6288 56.1043 16.9412 56.1043 19.932V34.0379H51.0018L50.4402 30.338C49.7537 31.5713 48.7862 32.5887 47.5377 33.3904C46.3209 34.192 44.7448 34.5929 42.8098 34.5929ZM44.1674 29.968C45.8838 29.968 47.2101 29.413 48.1464 28.303C49.1138 27.1931 49.7225 25.821 49.9718 24.1869H44.8696C43.2778 24.1869 42.1387 24.4798 41.4523 25.0656C40.7658 25.6206 40.4223 26.3143 40.4223 27.1468C40.4223 28.0409 40.7658 28.7347 41.4523 29.228C42.1387 29.7213 43.0438 29.968 44.1674 29.968Z" fill="#04061F"/>
<path d="M61.8223 34.0379V0.73877H67.8141V34.0379H61.8223Z" fill="#04061F"/>
<path d="M77.1669 7.53736C76.0745 7.53736 75.1695 7.2136 74.4518 6.56612C73.7649 5.91864 73.4219 5.10159 73.4219 4.11494C73.4219 3.12829 73.7649 2.32665 74.4518 1.70999C75.1695 1.06251 76.0745 0.73877 77.1669 0.73877C78.2589 0.73877 79.1485 1.06251 79.835 1.70999C80.5527 2.32665 80.9115 3.12829 80.9115 4.11494C80.9115 5.10159 80.5527 5.91864 79.835 6.56612C79.1485 7.2136 78.2589 7.53736 77.1669 7.53736ZM74.1708 34.0379V11.0985H80.1626V34.0379H74.1708Z" fill="#04061F"/>
<path d="M97.792 34.5929C95.4204 34.5929 93.3293 34.0841 91.5192 33.0666C89.7092 32.0492 88.2737 30.6309 87.2126 28.8117C86.1827 26.9926 85.6677 24.9114 85.6677 22.5682C85.6677 20.2249 86.1827 18.1437 87.2126 16.3245C88.2737 14.5054 89.7092 13.0871 91.5192 12.0697C93.3293 11.0522 95.4204 10.5435 97.792 10.5435C100.757 10.5435 103.253 11.3143 105.282 12.8559C107.311 14.3667 108.606 16.4633 109.167 19.1457H102.848C102.536 18.0358 101.912 17.1724 100.975 16.5558C100.07 15.9083 98.9935 15.5846 97.7454 15.5846C96.0914 15.5846 94.6869 16.2012 93.5324 17.4345C92.3776 18.6678 91.8002 20.379 91.8002 22.5682C91.8002 24.7573 92.3776 26.4685 93.5324 27.7018C94.6869 28.9351 96.0914 29.5517 97.7454 29.5517C98.9935 29.5517 100.07 29.2434 100.975 28.6267C101.912 28.0101 102.536 27.1314 102.848 25.9906H109.167C108.606 28.5805 107.311 30.6617 105.282 32.2342C103.253 33.8066 100.757 34.5929 97.792 34.5929Z" fill="#04061F"/>
</g>
<defs>
<clipPath id="clip0_766_415">
<rect width="109.086" height="33.8542" fill="white" transform="translate(0.0817871 0.73877)"/>
</clipPath>
</defs>
</svg>
