<svg width="137" height="30" viewBox="0 0 137 30" fill="none" xmlns="http://www.w3.org/2000/svg">
<g clip-path="url(#clip0_766_341)">
<path d="M0.147217 29.142V4.96045H14.2761L18.2143 8.89859V20.3675L14.2761 24.3057H5.05262V29.142H0.147217ZM13.3089 9.10584H5.05262V20.1603H13.3089V9.10584Z" fill="#04061F"/>
<path d="M21.5691 24.3056V0.124023H26.4745V4.96033H35.5944L39.3944 8.76029V24.3056H34.4891V9.10573H26.4745V24.3056H21.5691Z" fill="#04061F"/>
<path d="M42.7493 20.6439V8.62221L46.411 4.96045H56.7056L60.3673 8.62221V20.6439L56.7056 24.3057H46.411L42.7493 20.6439ZM47.6549 20.2984H55.462V8.96769H47.6549V20.2984Z" fill="#04061F"/>
<path d="M63.4629 20.6439V8.62221L67.1246 4.96045H80.7356V15.8076H68.3682V20.1603H80.0447V24.3057H67.1246L63.4629 20.6439ZM68.3682 13.1131L76.4519 12.7676V8.8295H68.3682V13.1131Z" fill="#04061F"/>
<path d="M84.0811 24.3057V4.96045H98.1064L101.906 8.7604V24.3057H97.0008V9.24403H88.9864V24.3057H84.0811Z" fill="#04061F"/>
<path d="M105.503 24.3057V4.96045H110.408V24.3057H105.503Z" fill="#04061F"/>
<path d="M114.894 1.7998L120.438 14.2285L115.152 26.7151H120.49L125.799 14.1773L120.277 1.7998H114.894Z" fill="#04061F"/>
<path d="M131.323 1.7998L125.802 14.1773L131.11 26.7151H136.448L131.162 14.2285L136.706 1.7998H131.323Z" fill="#04061F"/>
</g>
<defs>
<clipPath id="clip0_766_341">
<rect width="136.706" height="29.0179" fill="white" transform="translate(0.147217 0.124023)"/>
</clipPath>
</defs>
</svg>
