<svg width="150" height="39" viewBox="0 0 150 39" fill="none" xmlns="http://www.w3.org/2000/svg">
<g clip-path="url(#clip0_766_296)">
<path d="M59.1136 31.7516C56.7453 31.7516 54.7476 31.4167 53.1209 30.7469C51.5182 30.0771 50.3102 29.1321 49.4969 27.912C48.6835 26.6681 48.2768 25.2088 48.2768 23.5342V23.3189H52.1523V23.893C52.1523 24.8499 52.3673 25.6513 52.798 26.2973C53.2288 26.9193 53.9463 27.3977 54.9509 27.7326C55.956 28.0436 57.3433 28.1991 59.1136 28.1991C60.6449 28.1991 61.8649 28.0915 62.7737 27.8762C63.683 27.6369 64.3287 27.2781 64.7117 26.7996C65.1184 26.2973 65.3217 25.6753 65.3217 24.9337C65.3217 23.8811 64.9868 23.1156 64.3166 22.6371C63.6468 22.1587 62.5584 21.7759 61.0516 21.4888L55.1663 20.52C53.8268 20.2568 52.6308 19.874 51.578 19.3717C50.5256 18.8454 49.7002 18.1516 49.1018 17.2904C48.5279 16.4053 48.2407 15.3048 48.2407 13.9891C48.2407 13.1279 48.432 12.2786 48.8151 11.4413C49.1977 10.604 49.7957 9.85045 50.609 9.18063C51.4224 8.51082 52.4752 7.9845 53.767 7.60172C55.0825 7.19504 56.6856 6.9917 58.5754 6.9917C60.9196 6.9917 62.8455 7.35053 64.3527 8.06824C65.8599 8.78591 66.9721 9.76675 67.69 11.0107C68.4316 12.2308 68.8021 13.6303 68.8021 15.2091V15.4244H64.9628V14.9579C64.9628 13.9771 64.7474 13.1637 64.3166 12.5178C63.8863 11.848 63.1804 11.3576 62.1998 11.0466C61.2188 10.7117 59.8913 10.5442 58.2164 10.5442C56.7574 10.5442 55.573 10.6638 54.6642 10.903C53.7791 11.1423 53.1329 11.5011 52.7262 11.9796C52.3196 12.4341 52.1162 13.0322 52.1162 13.7738C52.1162 14.4436 52.2598 14.9938 52.547 15.4244C52.8341 15.855 53.2765 16.2019 53.8745 16.4651C54.4725 16.7043 55.2381 16.9315 56.171 17.1469L62.0201 18.1516C63.6232 18.4387 64.9507 18.8693 66.0035 19.4435C67.08 20.0176 67.8813 20.7472 68.4075 21.6323C68.9337 22.5175 69.1972 23.5461 69.1972 24.7184C69.1972 25.9384 68.8503 27.0867 68.1564 28.1633C67.4626 29.2398 66.3741 30.1129 64.891 30.7828C63.4078 31.4287 61.4819 31.7516 59.1136 31.7516ZM80.4888 31.3928H75.6804L70.3334 13.5585H74.3525L77.3308 23.6777L78.1562 28.2709H78.4434L79.7709 23.3189L83.5028 13.5585H88.4547L92.2228 23.3189L93.5503 28.2709H93.8375L94.6628 23.6777L97.6412 13.5585H101.588L96.1701 31.3928H91.3617L87.4501 21.13L86.0865 16.7521H85.7997L84.4361 21.13L80.4888 31.3928ZM107.432 31.3928H103.557V13.5585H107.432V31.3928ZM107.432 11.4772H103.557V7.35053H107.432V11.4772ZM119.454 31.7516C116.583 31.7516 114.358 31.2014 112.779 30.101C111.225 29.0005 110.447 27.4216 110.447 25.3643V25.2567H114.322V25.5437C114.322 26.7159 114.705 27.5293 115.471 27.9838C116.26 28.4144 117.588 28.6297 119.454 28.6297C121.2 28.6297 122.385 28.4503 123.006 28.0915C123.652 27.7087 123.975 27.1226 123.975 26.3332C123.975 25.5915 123.724 25.0653 123.222 24.7543C122.743 24.4433 121.858 24.2041 120.566 24.0366L115.686 23.3907C113.987 23.1754 112.66 22.6969 111.703 21.9553C110.746 21.1898 110.268 20.0535 110.268 18.5464C110.268 17.4938 110.579 16.5727 111.2 15.7833C111.823 14.9699 112.755 14.336 113.999 13.8814C115.244 13.4269 116.774 13.1996 118.592 13.1996C120.411 13.1996 121.966 13.4389 123.258 13.9173C124.573 14.3958 125.578 15.1134 126.272 16.0703C126.99 17.0272 127.349 18.2114 127.349 19.6228V19.7305H123.509V19.5152C123.509 18.8214 123.365 18.2353 123.078 17.7569C122.791 17.2784 122.277 16.9196 121.535 16.6804C120.818 16.4172 119.801 16.2857 118.485 16.2857C116.834 16.2857 115.686 16.477 115.04 16.8598C114.394 17.2426 114.071 17.8526 114.071 18.6899C114.071 19.3836 114.311 19.886 114.789 20.197C115.267 20.508 116.164 20.7592 117.48 20.9506L121.607 21.5247C123.712 21.7878 125.267 22.3022 126.272 23.0677C127.277 23.8332 127.779 24.9576 127.779 26.4408C127.779 27.5412 127.432 28.4981 126.739 29.3115C126.045 30.101 125.076 30.711 123.832 31.1416C122.588 31.5483 121.128 31.7516 119.454 31.7516ZM139.008 31.7516C136.137 31.7516 133.912 31.2014 132.334 30.101C130.779 29.0005 130.001 27.4216 130.001 25.3643V25.2567H133.877V25.5437C133.877 26.7159 134.259 27.5293 135.025 27.9838C135.814 28.4144 137.142 28.6297 139.008 28.6297C140.754 28.6297 141.938 28.4503 142.56 28.0915C143.206 27.7087 143.529 27.1226 143.529 26.3332C143.529 25.5915 143.278 25.0653 142.776 24.7543C142.297 24.4433 141.412 24.2041 140.12 24.0366L135.24 23.3907C133.542 23.1754 132.214 22.6969 131.257 21.9553C130.3 21.1898 129.822 20.0535 129.822 18.5464C129.822 17.4938 130.133 16.5727 130.755 15.7833C131.377 14.9699 132.31 14.336 133.554 13.8814C134.797 13.4269 136.329 13.1996 138.147 13.1996C139.965 13.1996 141.52 13.4389 142.811 13.9173C144.127 14.3958 145.132 15.1134 145.826 16.0703C146.543 17.0272 146.902 18.2114 146.902 19.6228V19.7305H143.063V19.5152C143.063 18.8214 142.919 18.2353 142.632 17.7569C142.345 17.2784 141.831 16.9196 141.089 16.6804C140.371 16.4172 139.355 16.2857 138.039 16.2857C136.388 16.2857 135.24 16.477 134.594 16.8598C133.948 17.2426 133.625 17.8526 133.625 18.6899C133.625 19.3836 133.864 19.886 134.343 20.197C134.821 20.508 135.719 20.7592 137.034 20.9506L141.161 21.5247C143.266 21.7878 144.821 22.3022 145.826 23.0677C146.831 23.8332 147.333 24.9576 147.333 26.4408C147.333 27.5412 146.986 28.4981 146.292 29.3115C145.598 30.101 144.63 30.711 143.386 31.1416C142.142 31.5483 140.683 31.7516 139.008 31.7516Z" fill="#04061F"/>
<path d="M23.9446 0.288086H15.9185V15.4892L23.9446 7.88867V0.288086Z" fill="#04061F"/>
<path d="M0.717286 23.5154L0.717285 15.4893H15.9184L8.31786 23.5154H0.717286Z" fill="#04061F"/>
<path d="M39.1457 15.4897V23.5159H23.9446L31.5452 15.4897H39.1457Z" fill="#04061F"/>
<path d="M23.9764 15.4575H15.8862V38.7169H23.9764V15.4575Z" fill="#04061F"/>
</g>
<defs>
<clipPath id="clip0_766_296">
<rect width="149.173" height="38.6905" fill="white" transform="translate(0.717285 0.287598)"/>
</clipPath>
</defs>
</svg>
