<svg width="30" height="30" viewBox="0 0 30 30" fill="none" xmlns="http://www.w3.org/2000/svg">
<g id="akar-icons:facebook-fill" clip-path="url(#clip0_441_2892)">
<path id="Vector" fill-rule="evenodd" clip-rule="evenodd" d="M0.125 14.8272C0.125 22.0531 5.37304 28.0618 12.2368 29.2802V18.7829H8.60326V14.7461H12.2368V11.5159C12.2368 7.88232 14.578 5.86449 17.8894 5.86449C18.9383 5.86449 20.0695 6.02558 21.1184 6.18667V9.90135H19.2616C17.4848 9.90135 17.0815 10.7891 17.0815 11.9204V14.7461H20.9573L20.3117 18.7829H17.0815V29.2802C23.9453 28.0618 29.1933 22.0543 29.1933 14.8272C29.1933 6.78862 22.6529 0.211914 14.6592 0.211914C6.66537 0.211914 0.125 6.78862 0.125 14.8272Z" fill="#033271"/>
</g>
<defs>
<clipPath id="clip0_441_2892">
<rect width="29.0683" height="29.0683" fill="white" transform="translate(0.125 0.211914)"/>
</clipPath>
</defs>
</svg>
