<svg width="31" height="31" viewBox="0 0 31 31" fill="none" xmlns="http://www.w3.org/2000/svg">
<g id="ant-design:twitter-circle-filled">
<path id="Vector" d="M15.4295 1.99121C7.99343 1.99121 1.96402 8.02062 1.96402 15.4567C1.96402 22.8928 7.99343 28.9222 15.4295 28.9222C22.8656 28.9222 28.895 22.8928 28.895 15.4567C28.895 8.02062 22.8656 1.99121 15.4295 1.99121ZM21.9007 12.1414C21.9098 12.2827 21.9098 12.43 21.9098 12.5742C21.9098 16.9866 18.5494 22.0692 12.4088 22.0692C10.5152 22.0692 8.75988 21.5192 7.28108 20.5724C7.55159 20.6024 7.81008 20.6144 8.0866 20.6144C9.64956 20.6144 11.0863 20.0854 12.2314 19.1897C10.7647 19.1597 9.53234 18.1979 9.11154 16.8754C9.62551 16.9505 10.0884 16.9505 10.6174 16.8153C9.86214 16.6618 9.1833 16.2516 8.6962 15.6544C8.20911 15.0572 7.94379 14.3097 7.94534 13.5391V13.497C8.38717 13.7464 8.90716 13.8997 9.45118 13.9208C8.99385 13.616 8.61878 13.2031 8.35925 12.7186C8.09972 12.2341 7.96374 11.6931 7.96337 11.1435C7.96337 10.5213 8.12568 9.95327 8.41723 9.46034C9.25552 10.4923 10.3016 11.3363 11.4874 11.9375C12.6733 12.5387 13.9724 12.8837 15.3003 12.9499C14.8284 10.6806 16.5236 8.84418 18.5614 8.84418C19.5232 8.84418 20.3889 9.24694 20.999 9.89617C21.7535 9.7549 22.4748 9.47236 23.118 9.09365C22.8686 9.86611 22.3456 10.5183 21.6513 10.9301C22.3245 10.858 22.9738 10.6716 23.5749 10.4101C23.121 11.0774 22.553 11.6695 21.9007 12.1414Z" fill="#033271"/>
</g>
</svg>
