<svg width="35" height="35" viewBox="0 0 35 35" fill="none" xmlns="http://www.w3.org/2000/svg">
<g id="bxl:instagram-alt">
<path id="Vector" d="M29.8656 12.1917C29.8512 11.1125 29.6492 10.0441 29.2685 9.03411C28.9384 8.18223 28.4343 7.40856 27.7883 6.76255C27.1423 6.11654 26.3686 5.61239 25.5167 5.2823C24.5198 4.90806 23.4665 4.7057 22.4019 4.68384C21.0311 4.62257 20.5965 4.60547 17.1168 4.60547C13.6372 4.60547 13.1912 4.60547 11.8304 4.68384C10.7662 4.70586 9.71346 4.90822 8.71694 5.2823C7.86493 5.61216 7.09114 6.11623 6.4451 6.76227C5.79906 7.40831 5.29499 8.1821 4.96514 9.03411C4.59014 10.0303 4.38822 11.0833 4.36809 12.1476C4.30682 13.5198 4.2883 13.9544 4.2883 17.434C4.2883 20.9137 4.2883 21.3582 4.36809 22.7204C4.38947 23.7863 4.59038 24.8379 4.96514 25.8367C5.29554 26.6885 5.79999 27.462 6.44625 28.1077C7.0925 28.7535 7.86636 29.2574 8.71837 29.5871C9.71215 29.9764 10.7651 30.1933 11.8318 30.2283C13.204 30.2896 13.6386 30.3081 17.1183 30.3081C20.5979 30.3081 21.0439 30.3081 22.4047 30.2283C23.4693 30.2074 24.5226 30.0055 25.5196 29.6313C26.3712 29.3008 27.1447 28.7965 27.7907 28.1506C28.4366 27.5046 28.9409 26.7311 29.2714 25.8795C29.6461 24.882 29.847 23.8305 29.8684 22.7632C29.9297 21.3924 29.9482 20.9578 29.9482 17.4767C29.9454 13.9971 29.9454 13.5554 29.8656 12.1917ZM17.1083 24.0143C13.469 24.0143 10.5209 21.0661 10.5209 17.4269C10.5209 13.7876 13.469 10.8395 17.1083 10.8395C18.8554 10.8395 20.5309 11.5335 21.7663 12.7689C23.0016 14.0043 23.6957 15.6798 23.6957 17.4269C23.6957 19.174 23.0016 20.8495 21.7663 22.0849C20.5309 23.3202 18.8554 24.0143 17.1083 24.0143ZM23.9579 12.1319C23.7561 12.1321 23.5563 12.0925 23.3698 12.0153C23.1834 11.9382 23.014 11.8251 22.8713 11.6824C22.7286 11.5397 22.6155 11.3703 22.5383 11.1839C22.4612 10.9974 22.4216 10.7976 22.4218 10.5958C22.4218 10.3942 22.4615 10.1945 22.5387 10.0083C22.6158 9.82199 22.7289 9.65274 22.8715 9.51017C23.0141 9.3676 23.1833 9.2545 23.3696 9.17735C23.5559 9.10019 23.7555 9.06047 23.9572 9.06047C24.1588 9.06047 24.3584 9.10019 24.5447 9.17735C24.731 9.2545 24.9002 9.3676 25.0428 9.51017C25.1854 9.65274 25.2985 9.82199 25.3756 10.0083C25.4528 10.1945 25.4925 10.3942 25.4925 10.5958C25.4925 11.4451 24.8057 12.1319 23.9579 12.1319Z" fill="#033271"/>
<path id="Vector_2" d="M17.1082 21.7055C19.4714 21.7055 21.3872 19.7897 21.3872 17.4265C21.3872 15.0632 19.4714 13.1475 17.1082 13.1475C14.7449 13.1475 12.8292 15.0632 12.8292 17.4265C12.8292 19.7897 14.7449 21.7055 17.1082 21.7055Z" fill="#033271"/>
</g>
</svg>
