<svg width="30" height="30" viewBox="0 0 30 30" fill="none" xmlns="http://www.w3.org/2000/svg">
<g id="bxs:phone">
<path id="Vector" d="M24.9381 21.0091L20.0146 16.5325C19.7819 16.321 19.4761 16.2082 19.1617 16.2179C18.8474 16.2276 18.5491 16.3591 18.3299 16.5846L15.4315 19.5653C14.7339 19.4321 13.3314 18.9949 11.8876 17.5548C10.4439 16.1098 10.0067 14.7037 9.87707 14.0109L12.8554 11.1113C13.0811 10.8922 13.2128 10.5939 13.2225 10.2795C13.2323 9.96503 13.1193 9.65915 12.9074 9.42655L8.43213 4.50432C8.22022 4.27099 7.92571 4.12946 7.61113 4.10979C7.29656 4.09011 6.9867 4.19384 6.74738 4.39894L4.11912 6.65295C3.90972 6.86311 3.78473 7.14281 3.76787 7.43901C3.74971 7.7418 3.40331 14.9144 8.96505 20.4786C13.817 25.3293 19.8947 25.6842 21.5686 25.6842C21.8132 25.6842 21.9634 25.677 22.0034 25.6745C22.2996 25.658 22.5791 25.5324 22.7882 25.3221L25.041 22.6926C25.247 22.454 25.3514 22.1444 25.3322 21.8299C25.313 21.5153 25.1715 21.2208 24.9381 21.0091Z" fill="#033271"/>
</g>
</svg>
