<svg width="36" height="36" viewBox="0 0 36 36" fill="none" xmlns="http://www.w3.org/2000/svg">
<g id="" clip-path="url(#clip0_172_424)">
<path id="Vector" fill-rule="evenodd" clip-rule="evenodd" d="M0.171387 18.2093C0.171387 26.9026 6.48519 34.1315 14.7428 35.5974V22.9683H10.3714V18.1117H14.7428V14.2255C14.7428 9.85406 17.5595 7.42646 21.5433 7.42646C22.8052 7.42646 24.1662 7.62026 25.428 7.81406V12.2831H23.1942C21.0566 12.2831 20.5714 13.3512 20.5714 14.7122V18.1117H25.2342L24.4576 22.9683H20.5714V35.5974C28.829 34.1315 35.1428 26.9041 35.1428 18.2093C35.1428 8.53826 27.2742 0.625977 17.6571 0.625977C8.03996 0.625977 0.171387 8.53826 0.171387 18.2093Z" fill="white"/>
</g>
<defs>
<clipPath id="clip0_172_424">
<rect width="34.9714" height="34.9714" fill="white" transform="translate(0.171387 0.625977)"/>
</clipPath>
</defs>
</svg>
