<svg width="85" height="84" viewBox="0 0 85 84" fill="none" xmlns="http://www.w3.org/2000/svg">
<path d="M61.6249 23.5833L34.1666 51.0417L19.2083 36.125L13.3333 42L34.1666 62.8333L67.4999 29.5L61.6249 23.5833ZM42.4999 0.333344C19.4999 0.333344 0.833252 19 0.833252 42C0.833252 65 19.4999 83.6667 42.4999 83.6667C65.4999 83.6667 84.1666 65 84.1666 42C84.1666 19 65.4999 0.333344 42.4999 0.333344ZM42.4999 75.3333C24.0833 75.3333 9.16658 60.4167 9.16658 42C9.16658 23.5833 24.0833 8.66668 42.4999 8.66668C60.9166 8.66668 75.8333 23.5833 75.8333 42C75.8333 60.4167 60.9166 75.3333 42.4999 75.3333Z" fill="#0060FF"/>
</svg>
