<svg width="31" height="31" viewBox="0 0 31 31" fill="none" xmlns="http://www.w3.org/2000/svg">
<g id="fluent:mail-12-regular">
<path id="Vector" d="M9.1024 7.70605C8.08204 7.70605 7.10347 8.11139 6.38197 8.8329C5.66046 9.5544 5.25513 10.533 5.25513 11.5533V19.2479C5.25513 20.2683 5.66046 21.2468 6.38197 21.9683C7.10347 22.6898 8.08204 23.0952 9.1024 23.0952H21.9267C22.947 23.0952 23.9256 22.6898 24.6471 21.9683C25.3686 21.2468 25.7739 20.2683 25.7739 19.2479V11.5533C25.7739 10.533 25.3686 9.5544 24.6471 8.8329C23.9256 8.11139 22.947 7.70605 21.9267 7.70605H9.1024ZM7.81998 11.5533C7.81998 11.2132 7.95509 10.887 8.19559 10.6465C8.43609 10.406 8.76228 10.2709 9.1024 10.2709H21.9267C22.2668 10.2709 22.593 10.406 22.8335 10.6465C23.074 10.887 23.2091 11.2132 23.2091 11.5533V11.9894L15.5145 15.2878L7.81998 11.9894V11.5533ZM7.81998 14.7799L15.0093 17.8603C15.1689 17.9287 15.3408 17.964 15.5145 17.964C15.6882 17.964 15.8601 17.9287 16.0198 17.8603L23.2091 14.7799V19.2479C23.2091 19.588 23.074 19.9142 22.8335 20.1547C22.593 20.3952 22.2668 20.5303 21.9267 20.5303H9.1024C8.76228 20.5303 8.43609 20.3952 8.19559 20.1547C7.95509 19.9142 7.81998 19.588 7.81998 19.2479V14.7799Z" fill="#033271"/>
</g>
</svg>
