<svg width="42" height="42" viewBox="0 0 42 42" fill="none" xmlns="http://www.w3.org/2000/svg">
<g id="bxl:instagram-alt">
<path id="Vector" d="M36.4808 14.8349C36.4635 13.5365 36.2204 12.2511 35.7625 11.036C35.3654 10.0111 34.7588 9.08035 33.9816 8.30315C33.2044 7.52594 32.2737 6.91941 31.2488 6.52229C30.0494 6.07205 28.7822 5.82859 27.5013 5.80229C25.8522 5.72858 25.3293 5.70801 21.1431 5.70801C16.9568 5.70801 16.4202 5.70801 14.7831 5.80229C13.5028 5.82879 12.2362 6.07224 11.0374 6.52229C10.0123 6.91913 9.08139 7.52557 8.30415 8.30281C7.52691 9.08004 6.92047 10.011 6.52364 11.036C6.07249 12.2345 5.82956 13.5013 5.80535 14.7817C5.73164 16.4326 5.70935 16.9554 5.70935 21.1417C5.70935 25.328 5.70935 25.8629 5.80535 27.5017C5.83106 28.784 6.07278 30.0491 6.52364 31.2509C6.92114 32.2756 7.52803 33.2061 8.30553 33.983C9.08302 34.76 10.014 35.3661 11.0391 35.7629C12.2347 36.2312 13.5014 36.4921 14.7848 36.5343C16.4356 36.608 16.9585 36.6303 21.1448 36.6303C25.3311 36.6303 25.8676 36.6303 27.5048 36.5343C28.7856 36.5091 30.0528 36.2662 31.2522 35.816C32.2768 35.4184 33.2074 34.8117 33.9845 34.0346C34.7616 33.2574 35.3683 32.3269 35.7659 31.3023C36.2168 30.1023 36.4585 28.8371 36.4842 27.5531C36.5579 25.904 36.5802 25.3811 36.5802 21.1931C36.5768 17.0069 36.5768 16.4754 36.4808 14.8349ZM21.1328 29.0583C16.7545 29.0583 13.2076 25.5114 13.2076 21.1331C13.2076 16.7549 16.7545 13.208 21.1328 13.208C23.2347 13.208 25.2504 14.043 26.7367 15.5292C28.223 17.0155 29.0579 19.0313 29.0579 21.1331C29.0579 23.235 28.223 25.2508 26.7367 26.7371C25.2504 28.2233 23.2347 29.0583 21.1328 29.0583ZM29.3734 14.7629C29.1306 14.7631 28.8902 14.7154 28.6659 14.6227C28.4416 14.5299 28.2378 14.3937 28.0661 14.2221C27.8945 14.0505 27.7584 13.8466 27.6656 13.6223C27.5728 13.398 27.5251 13.1576 27.5253 12.9149C27.5253 12.6723 27.5731 12.4321 27.666 12.208C27.7588 11.9839 27.8948 11.7803 28.0664 11.6087C28.2379 11.4372 28.4415 11.3012 28.6656 11.2083C28.8897 11.1155 29.1299 11.0677 29.3725 11.0677C29.6151 11.0677 29.8553 11.1155 30.0794 11.2083C30.3035 11.3012 30.5071 11.4372 30.6786 11.6087C30.8501 11.7803 30.9862 11.9839 31.079 12.208C31.1719 12.4321 31.2196 12.6723 31.2196 12.9149C31.2196 13.9366 30.3934 14.7629 29.3734 14.7629Z" fill="white"/>
<path id="Vector_2" d="M21.1325 26.2814C23.9757 26.2814 26.2805 23.9765 26.2805 21.1334C26.2805 18.2902 23.9757 15.9854 21.1325 15.9854C18.2893 15.9854 15.9845 18.2902 15.9845 21.1334C15.9845 23.9765 18.2893 26.2814 21.1325 26.2814Z" fill="white"/>
</g>
</svg>
