<svg width="38" height="38" viewBox="0 0 38 38" fill="none" xmlns="http://www.w3.org/2000/svg">
<path d="M11.6291 9.79688C10.4015 9.79688 9.22419 10.2845 8.35617 11.1526C7.48814 12.0206 7.00049 13.1979 7.00049 14.4254V23.6826C7.00049 24.9102 7.48814 26.0875 8.35617 26.9555C9.22419 27.8235 10.4015 28.3112 11.6291 28.3112H27.0576C28.2852 28.3112 29.4625 27.8235 30.3305 26.9555C31.1985 26.0875 31.6862 24.9102 31.6862 23.6826V14.4254C31.6862 13.1979 31.1985 12.0206 30.3305 11.1526C29.4625 10.2845 28.2852 9.79688 27.0576 9.79688H11.6291ZM10.0862 14.4254C10.0862 14.0163 10.2488 13.6238 10.5381 13.3345C10.8274 13.0451 11.2199 12.8826 11.6291 12.8826H27.0576C27.4668 12.8826 27.8593 13.0451 28.1486 13.3345C28.4379 13.6238 28.6005 14.0163 28.6005 14.4254V14.95L19.3433 18.9182L10.0862 14.95V14.4254ZM10.0862 18.3073L18.7355 22.0132C18.9275 22.0956 19.1344 22.138 19.3433 22.138C19.5523 22.138 19.7591 22.0956 19.9512 22.0132L28.6005 18.3073V23.6826C28.6005 24.0918 28.4379 24.4842 28.1486 24.7736C27.8593 25.0629 27.4668 25.2254 27.0576 25.2254H11.6291C11.2199 25.2254 10.8274 25.0629 10.5381 24.7736C10.2488 24.4842 10.0862 24.0918 10.0862 23.6826V18.3073Z" fill="white"/>
</svg>
