<svg width="36" height="36" viewBox="0 0 36 36" fill="none" xmlns="http://www.w3.org/2000/svg">
<path d="M30.681 25.5732L24.7577 20.1876C24.4777 19.9332 24.1097 19.7974 23.7316 19.8091C23.3534 19.8208 22.9945 19.979 22.7308 20.2503L19.2438 23.8363C18.4045 23.676 16.7172 23.15 14.9802 21.4175C13.2433 19.6791 12.7173 17.9874 12.5614 17.1539L16.1445 13.6655C16.4161 13.4019 16.5746 13.043 16.5863 12.6647C16.5979 12.2864 16.462 11.9184 16.2072 11.6386L10.823 5.71675C10.5681 5.43604 10.2138 5.26577 9.8353 5.2421C9.45684 5.21843 9.08406 5.34323 8.79613 5.58998L5.63413 8.30172C5.38221 8.55456 5.23184 8.89107 5.21156 9.24741C5.1897 9.61169 4.77296 18.2409 11.4642 24.935C17.3015 30.7709 24.6134 31.1978 26.6272 31.1978C26.9215 31.1978 27.1022 31.1891 27.1503 31.1862C27.5066 31.1662 27.8429 31.0152 28.0945 30.7621L30.8048 27.5987C31.0525 27.3117 31.1783 26.9392 31.1551 26.5607C31.132 26.1823 30.9618 25.8279 30.681 25.5732Z" fill="white"/>
</svg>
