<svg width="36" height="36" viewBox="0 0 36 36" fill="none" xmlns="http://www.w3.org/2000/svg">
<path d="M18.3138 3.4834C12.6746 3.4834 8.11377 8.04426 8.11377 13.6834C8.11377 21.3334 18.3138 32.6263 18.3138 32.6263C18.3138 32.6263 28.5138 21.3334 28.5138 13.6834C28.5138 8.04426 23.9529 3.4834 18.3138 3.4834ZM18.3138 17.3263C17.3476 17.3263 16.4211 16.9425 15.7379 16.2593C15.0547 15.5761 14.6709 14.6495 14.6709 13.6834C14.6709 12.7173 15.0547 11.7907 15.7379 11.1075C16.4211 10.4243 17.3476 10.0405 18.3138 10.0405C19.2799 10.0405 20.2065 10.4243 20.8897 11.1075C21.5728 11.7907 21.9566 12.7173 21.9566 13.6834C21.9566 14.6495 21.5728 15.5761 20.8897 16.2593C20.2065 16.9425 19.2799 17.3263 18.3138 17.3263Z" fill="white"/>
</svg>
