<svg width="40" height="40" viewBox="0 0 40 40" fill="none" xmlns="http://www.w3.org/2000/svg">
<g id="ri:telegram-line">
<path id="Vector" d="M31.425 19.6997C31.425 22.6304 30.2608 25.441 28.1885 27.5132C26.1163 29.5855 23.3056 30.7497 20.375 30.7497C17.4444 30.7497 14.6337 29.5855 12.5615 27.5132C10.4892 25.441 9.325 22.6304 9.325 19.6997C9.325 16.7691 10.4892 13.9585 12.5615 11.8862C14.6337 9.8139 17.4444 8.64971 20.375 8.64971C23.3056 8.64971 26.1163 9.8139 28.1885 11.8862C30.2608 13.9585 31.425 16.7691 31.425 19.6997ZM20.375 33.5122C28.0036 33.5122 34.1875 27.3284 34.1875 19.6997C34.1875 12.0711 28.0036 5.88721 20.375 5.88721C12.7464 5.88721 6.5625 12.0711 6.5625 19.6997C6.5625 27.3284 12.7464 33.5122 20.375 33.5122ZM20.8695 16.0836C19.5269 16.6425 16.8422 17.7996 12.8154 19.5547C12.1607 19.8144 11.8182 20.0685 11.7878 20.3171C11.7353 20.737 12.2615 20.9028 12.9784 21.1279L13.2795 21.2246C13.984 21.4539 14.9343 21.7219 15.4274 21.7329C15.8749 21.7421 16.374 21.5579 16.9246 21.1804C20.6872 18.6389 22.6292 17.3548 22.7508 17.3281C22.8378 17.3088 22.9566 17.2839 23.0367 17.3557C23.1182 17.4276 23.1099 17.5629 23.1016 17.6002C23.0491 17.8226 20.9828 19.7439 19.9137 20.737C19.5969 21.0354 19.2824 21.336 18.9703 21.639C18.3156 22.2702 17.8238 22.744 18.9979 23.5175C20.1872 24.302 21.3875 25.0838 22.5477 25.9112C23.1195 26.32 23.6334 26.6847 24.2687 26.6281C24.6375 26.5935 25.0188 26.2468 25.2121 25.2109C25.6707 22.7661 26.5699 17.4648 26.7771 15.2797C26.7891 15.0984 26.7812 14.9164 26.7536 14.7369C26.7373 14.5924 26.6673 14.4593 26.5575 14.3639C26.3917 14.2286 26.1362 14.201 26.0229 14.2023C25.5036 14.212 24.7066 14.4883 20.8709 16.0836" fill="#787676"/>
</g>
</svg>
