<svg width="38" height="38" viewBox="0 0 38 38" fill="none" xmlns="http://www.w3.org/2000/svg">
<g id="ant-design:twitter-circle-filled">
<path id="Vector" d="M18.6572 2.96973C9.71099 2.96973 2.45715 10.2236 2.45715 19.1697C2.45715 28.1159 9.71099 35.3697 18.6572 35.3697C27.6033 35.3697 34.8572 28.1159 34.8572 19.1697C34.8572 10.2236 27.6033 2.96973 18.6572 2.96973ZM26.4426 15.1812C26.4534 15.3512 26.4534 15.5283 26.4534 15.7019C26.4534 21.0103 22.4106 27.1251 15.023 27.1251C12.7449 27.1251 10.6331 26.4633 8.85398 25.3243C9.17943 25.3604 9.49041 25.3749 9.82309 25.3749C11.7034 25.3749 13.4319 24.7385 14.8097 23.6609C13.045 23.6247 11.5624 22.4676 11.0562 20.8765C11.6745 20.9669 12.2314 20.9669 12.8678 20.8042C11.9592 20.6196 11.1425 20.1261 10.5565 19.4076C9.97047 18.6891 9.65128 17.7899 9.65314 16.8627V16.812C10.1847 17.1122 10.8103 17.2966 11.4648 17.3219C10.9146 16.9552 10.4633 16.4584 10.1511 15.8756C9.83887 15.2928 9.67528 14.6419 9.67483 13.9807C9.67483 13.2321 9.8701 12.5487 10.2209 11.9557C11.2294 13.1972 12.4879 14.2126 13.9145 14.9359C15.3412 15.6592 16.9041 16.0742 18.5017 16.1539C17.9339 13.4238 19.9734 11.2144 22.4251 11.2144C23.5822 11.2144 24.6237 11.6989 25.3577 12.48C26.2654 12.31 27.1332 11.9701 27.9071 11.5145C27.6069 12.4438 26.9777 13.2285 26.1424 13.7239C26.9524 13.6371 27.7335 13.4129 28.4567 13.0983C27.9107 13.9011 27.2272 14.6135 26.4426 15.1812Z" fill="white"/>
</g>
</svg>
