<svg width="29" height="29" viewBox="0 0 29 29" fill="none" xmlns="http://www.w3.org/2000/svg">
<path id="Vector" d="M24.2361 4.85278C22.9626 3.56681 21.4459 2.54717 19.7743 1.85328C18.1028 1.15939 16.3098 0.805114 14.5 0.81111C6.91667 0.81111 0.736111 6.99167 0.736111 14.575C0.736111 17.0056 1.375 19.3667 2.56944 21.45L0.625 28.5889L7.91667 26.6722C9.93056 27.7694 12.1944 28.3528 14.5 28.3528C22.0833 28.3528 28.2639 22.1722 28.2639 14.5889C28.2639 10.9083 26.8333 7.45 24.2361 4.85278ZM14.5 26.0194C12.4444 26.0194 10.4306 25.4639 8.66667 24.4222L8.25 24.1722L3.91667 25.3111L5.06944 21.0889L4.79167 20.6583C3.64937 18.8348 3.04295 16.7268 3.04167 14.575C3.04167 8.26944 8.18056 3.13055 14.4861 3.13055C17.5417 3.13055 20.4167 4.325 22.5694 6.49167C23.6356 7.55259 24.4804 8.81464 25.055 10.2046C25.6296 11.5946 25.9225 13.0848 25.9167 14.5889C25.9444 20.8944 20.8056 26.0194 14.5 26.0194ZM20.7778 17.4639C20.4306 17.2972 18.7361 16.4639 18.4306 16.3389C18.1111 16.2278 17.8889 16.1722 17.6528 16.5056C17.4167 16.8528 16.7639 17.6306 16.5694 17.8528C16.375 18.0889 16.1667 18.1167 15.8194 17.9361C15.4722 17.7694 14.3611 17.3944 13.0556 16.2278C12.0278 15.3111 11.3472 14.1861 11.1389 13.8389C10.9444 13.4917 11.1111 13.3111 11.2917 13.1306C11.4444 12.9778 11.6389 12.7278 11.8056 12.5333C11.9722 12.3389 12.0417 12.1861 12.1528 11.9639C12.2639 11.7278 12.2083 11.5333 12.125 11.3667C12.0417 11.2 11.3472 9.50556 11.0694 8.81111C10.7917 8.14444 10.5 8.22778 10.2917 8.21389H9.625C9.38889 8.21389 9.02778 8.29722 8.70833 8.64444C8.40278 8.99167 7.51389 9.825 7.51389 11.5194C7.51389 13.2139 8.75 14.8528 8.91667 15.075C9.08333 15.3111 11.3472 18.7833 14.7917 20.2694C15.6111 20.6306 16.25 20.8389 16.75 20.9917C17.5694 21.2556 18.3194 21.2139 18.9167 21.1306C19.5833 21.0333 20.9583 20.2972 21.2361 19.4917C21.5278 18.6861 21.5278 18.0056 21.4306 17.8528C21.3333 17.7 21.125 17.6306 20.7778 17.4639Z" fill="#13B60A"/>
</svg>
